<?xml version="1.0" encoding="UTF-8" standalone="no"?>
<svg
   xmlns:dc="http://purl.org/dc/elements/1.1/"
   xmlns:cc="http://creativecommons.org/ns#"
   xmlns:rdf="http://www.w3.org/1999/02/22-rdf-syntax-ns#"
   xmlns:svg="http://www.w3.org/2000/svg"
   xmlns="http://www.w3.org/2000/svg"
   xmlns:sodipodi="http://sodipodi.sourceforge.net/DTD/sodipodi-0.dtd"
   xmlns:inkscape="http://www.inkscape.org/namespaces/inkscape"
   sodipodi:docname="haliphron.svg"
   inkscape:version="1.0 (4035a4fb49, 2020-05-01)"
   id="svg8"
   version="1.1"
   viewBox="0 0 120 120"
   height="120mm"
   width="120mm">
  <defs
     id="defs2">
    <clipPath
       id="clipPath1047"
       clipPathUnits="userSpaceOnUse">
      <circle
         style="opacity:1;fill:none;fill-opacity:1;stroke:#000000;stroke-width:0.1;stroke-miterlimit:10.433;stroke-dasharray:none;stroke-opacity:1;stop-color:#000000"
         id="circle1049"
         cx="93.499809"
         cy="151.89717"
         r="41.45945" />
    </clipPath>
    <clipPath
       id="clipPath1106"
       clipPathUnits="userSpaceOnUse">
      <circle
         style="fill:none;fill-opacity:1;stroke:#000000;stroke-width:0.016;stroke-miterlimit:10.433;stroke-dasharray:none;stroke-opacity:1;stop-color:#000000"
         id="circle1108"
         cx="93.499809"
         cy="151.89717"
         r="41.45945" />
    </clipPath>
  </defs>
  <sodipodi:namedview
     inkscape:window-maximized="1"
     inkscape:window-y="23"
     inkscape:window-x="0"
     inkscape:window-height="2977"
     inkscape:window-width="4500"
     fit-margin-bottom="0"
     fit-margin-right="0"
     fit-margin-left="0"
     fit-margin-top="0"
     inkscape:pagecheckerboard="true"
     showgrid="false"
     inkscape:document-rotation="0"
     inkscape:current-layer="layer1"
     inkscape:document-units="mm"
     inkscape:cy="168.79972"
     inkscape:cx="273.38655"
     inkscape:zoom="0.7"
     inkscape:pageshadow="2"
     inkscape:pageopacity="0.0"
     borderopacity="1.0"
     bordercolor="#666666"
     pagecolor="#ffffff"
     id="base">
    <inkscape:grid
       originy="-91.897171"
       originx="-33.499809"
       id="grid837"
       type="xygrid" />
  </sodipodi:namedview>
  <metadata
     id="metadata5">
    <rdf:RDF>
      <cc:Work
         rdf:about="">
        <dc:format>image/svg+xml</dc:format>
        <dc:type
           rdf:resource="http://purl.org/dc/dcmitype/StillImage" />
        <dc:title></dc:title>
      </cc:Work>
    </rdf:RDF>
  </metadata>
  <g
     transform="translate(-33.499809,-91.89717)"
     id="layer1"
     inkscape:groupmode="layer"
     inkscape:label="Layer 1">
    <g
       transform="matrix(1.4471972,0,0,1.4471972,-41.812854,-67.927991)"
       clip-path="url(#clipPath1106)"
       id="g1098">
      <circle
         style="fill:#007e87;fill-opacity:1;stroke:none;stroke-width:0.116277;stroke-miterlimit:10.433;stop-color:#000000"
         id="path887"
         cx="93.499809"
         cy="151.89717"
         r="41.45945" />
      <g
         id="g1077">
        <path
           sodipodi:nodetypes="czzczzcc"
           id="path835"
           d="m 74.571376,103.58852 c 0,0 18.520831,15.875 18.520831,26.45833 0,10.58333 -5.29167,15.875 -7.9375,26.45834 -2.645831,10.58332 2.64583,26.45832 7.9375,26.45832 -2.64583,-5.29167 -5.29167,-15.87499 0,-26.45832 5.29167,-10.58334 13.229173,-13.22917 13.229173,-26.45834 0,-13.22916 -13.229173,-26.45833 -13.229173,-26.45833 z"
           style="opacity:0.717761;mix-blend-mode:hard-light;fill:#e9e500;fill-opacity:0.7;stroke:none;stroke-width:0.264583px;stroke-linecap:butt;stroke-linejoin:miter;stroke-opacity:1" />
        <path
           style="opacity:0.717761;mix-blend-mode:hard-light;fill:#e9be00;fill-opacity:0.7;stroke:none;stroke-width:0.264583px;stroke-linecap:butt;stroke-linejoin:miter;stroke-opacity:1"
           d="m 99.199044,109.01256 c 0,0 -18.520822,15.875 -18.520822,26.45833 0,10.58333 5.291662,15.875 7.937502,26.45834 2.64583,10.58332 -2.64584,26.45832 -7.937502,26.45832 2.645833,-5.29167 5.291662,-15.87499 0,-26.45832 -5.291665,-10.58334 -13.229165,-13.22917 -13.229165,-26.45834 0,-13.22916 13.229165,-26.45833 13.229165,-26.45833 z"
           id="path835-5"
           sodipodi:nodetypes="czzczzcc" />
        <path
           sodipodi:nodetypes="czzczzcc"
           id="path835-5-2"
           d="m 112.42824,103.58852 c 0,0 -18.520843,15.875 -18.520843,26.45833 0,10.58333 5.29168,15.875 7.937513,26.45834 2.64583,10.58332 -2.645833,26.45832 -7.937513,26.45832 2.64584,-5.29167 5.29168,-15.87499 0,-26.45832 -5.29167,-10.58334 -13.229171,-13.22917 -13.229171,-26.45834 0,-13.22916 13.229171,-26.45833 13.229171,-26.45833 z"
           style="opacity:0.717761;mix-blend-mode:hard-light;fill:#e9be00;fill-opacity:0.7;stroke:none;stroke-width:0.264583px;stroke-linecap:butt;stroke-linejoin:miter;stroke-opacity:1" />
        <path
           style="opacity:0.717761;mix-blend-mode:hard-light;fill:#c6e900;fill-opacity:0.7;stroke:none;stroke-width:0.262943px;stroke-linecap:butt;stroke-linejoin:miter;stroke-opacity:1"
           d="m 70.694763,115.51254 c 0,0 22.833464,8.47709 26.453184,18.2993 3.619723,9.82219 0.45704,16.5208 1.59048,27.23676 1.13344,10.71594 11.535553,23.66175 16.508103,21.87425 -4.29613,-4.01735 -10.40211,-12.94579 -9.04929,-24.5555 1.35284,-11.6097 7.9067,-16.74649 3.38206,-29.02425 -4.52464,-12.27776 -21.480643,-20.08679 -21.480643,-20.08679 z"
           id="path835-3"
           sodipodi:nodetypes="czzczzcc" />
        <path
           sodipodi:nodetypes="czzczzcc"
           id="path835-3-6"
           d="m 107.30901,108.76073 c 0,0 -22.833471,8.52748 -26.453168,18.40809 -3.619721,9.8806 -0.457041,16.61903 -1.590481,27.39871 -1.13344,10.77965 -11.53555,23.80243 -16.5081,22.0043 4.29613,-4.04124 10.40211,-13.02276 9.04929,-24.70149 -1.35284,-11.67874 -7.9067,-16.84607 -3.38206,-29.19683 4.52464,-12.35075 21.480627,-20.20621 21.480627,-20.20621 z"
           style="opacity:0.717761;mix-blend-mode:hard-light;fill:#e99700;fill-opacity:0.7;stroke:none;stroke-width:0.263724px;stroke-linecap:butt;stroke-linejoin:miter;stroke-opacity:1" />
        <path
           sodipodi:nodetypes="czzczzcc"
           id="path835-3-9"
           d="m 79.690596,108.76073 c 0,0 22.833484,8.52749 26.453184,18.40809 3.61972,9.8806 0.45704,16.61903 1.59048,27.39871 1.13344,10.77965 11.53555,23.80243 16.5081,22.0043 -4.29613,-4.04124 -10.40211,-13.02276 -9.04929,-24.70149 1.35284,-11.67873 7.9067,-16.84607 3.38206,-29.19682 C 114.05049,110.32276 97.094506,102.4673 97.094506,102.4673 Z"
           style="opacity:0.717761;mix-blend-mode:hard-light;fill:#c6e900;fill-opacity:0.7;stroke:none;stroke-width:0.263724px;stroke-linecap:butt;stroke-linejoin:miter;stroke-opacity:1" />
        <path
           style="opacity:0.717761;mix-blend-mode:hard-light;fill:#e99700;fill-opacity:0.7;stroke:none;stroke-width:0.262943px;stroke-linecap:butt;stroke-linejoin:miter;stroke-opacity:1"
           d="m 116.30484,115.51254 c 0,0 -22.833473,8.47708 -26.453163,18.2993 -3.61972,9.82219 -0.45704,16.5208 -1.59048,27.23676 -1.13344,10.71594 -11.535553,23.66175 -16.508103,21.87425 4.29613,-4.01735 10.40211,-12.94579 9.04929,-24.5555 -1.35284,-11.60971 -7.9067,-16.74649 -3.38206,-29.02426 4.52464,-12.27775 21.480623,-20.08678 21.480623,-20.08678 z"
           id="path835-3-6-1"
           sodipodi:nodetypes="czzczzcc" />
        <path
           style="opacity:0.717761;mix-blend-mode:hard-light;fill:#e9e500;fill-opacity:0.7;stroke:none;stroke-width:0.264583px;stroke-linecap:butt;stroke-linejoin:miter;stroke-opacity:1"
           d="m 87.80054,109.01256 c 0,0 18.52086,15.875 18.52086,26.45833 0,10.58333 -5.29167,15.875 -7.9375,26.45834 -2.64584,10.58332 2.64583,26.45832 7.9375,26.45832 -2.64583,-5.29167 -5.29167,-15.87499 0,-26.45832 5.29167,-10.58334 13.22917,-13.22917 13.22917,-26.45834 0,-13.22916 -13.22917,-26.45833 -13.22917,-26.45833 z"
           id="path835-2"
           sodipodi:nodetypes="czzczzcc" />
      </g>
    </g>
  </g>
</svg>
